<svg xmlns="http://www.w3.org/2000/svg" viewBox="0 0 24 24">
  <rect width="24" height="24" rx="5" fill="#0A0E1A"/>
  <defs>
    <linearGradient id="g" x1="0%" y1="0%" x2="100%" y2="100%">
      <stop offset="0%" stop-color="#A8821E"/>
      <stop offset="50%" stop-color="#F0D670"/>
      <stop offset="100%" stop-color="#A8821E"/>
    </linearGradient>
  </defs>
  <path d="M3 22Q3 23.5 4.5 23.5L19.5 23.5Q21 23.5 21 22L21 20L19 20L19 18Q17.5 13.5 18.5 10L20 10L20 3L16 3L16 7L14 7L14 3L10 3L10 7L8 7L8 3L4 3L4 10L5.5 10Q6.5 13.5 5 18L5 20L3 20Z" fill="url(#g)"/>
</svg>
